<svg class="icon" width="24" height="24" viewBox="0 0 24 24" fill="none"
    xmlns="http://www.w3.org/2000/svg">
    <path fill-rule="evenodd" clip-rule="evenodd"
        d="M16.7139 6.64189C16.5644 6.49209 16.3615 6.4079 16.1499 6.4079C15.9383 6.4079 15.7354 6.49209 15.5859 6.64189L11.6739 10.5459L7.7619 6.63389C7.61244 6.48409 7.40952 6.3999 7.1979 6.3999C6.98629 6.3999 6.78337 6.48409 6.6339 6.63389C6.3219 6.94589 6.3219 7.44989 6.6339 7.76189L10.5459 11.6739L6.6339 15.5859C6.3219 15.8979 6.3219 16.4019 6.6339 16.7139C6.9459 17.0259 7.4499 17.0259 7.7619 16.7139L11.6739 12.8019L15.5859 16.7139C15.8979 17.0259 16.4019 17.0259 16.7139 16.7139C17.0259 16.4019 17.0259 15.8979 16.7139 15.5859L12.8019 11.6739L16.7139 7.76189C17.0179 7.45789 17.0179 6.94589 16.7139 6.64189Z"
        fill="#C3CAD9" />
</svg>
