<svg width="31" height="31" viewBox="0 0 31 31" fill="none" xmlns="http://www.w3.org/2000/svg">
<path fill-rule="evenodd" clip-rule="evenodd" d="M15.49 5.5C9.97 5.5 5.5 9.98 5.5 15.5C5.5 21.02 9.97 25.5 15.49 25.5C21.02 25.5 25.5 21.02 25.5 15.5C25.5 9.98 21.02 5.5 15.49 5.5ZM15.5 23.5C11.08 23.5 7.5 19.92 7.5 15.5C7.5 11.08 11.08 7.5 15.5 7.5C19.92 7.5 23.5 11.08 23.5 15.5C23.5 19.92 19.92 23.5 15.5 23.5ZM15.28 10.5H15.22C14.82 10.5 14.5 10.82 14.5 11.22V15.94C14.5 16.29 14.68 16.62 14.99 16.8L19.14 19.29C19.48 19.49 19.92 19.39 20.12 19.05C20.33 18.71 20.22 18.26 19.87 18.06L16 15.76V11.22C16 10.82 15.68 10.5 15.28 10.5Z" fill="#C3CAD9"/>
</svg>
